<svg xmlns="http://www.w3.org/2000/svg" xmlns:xlink="http://www.w3.org/1999/xlink" version="1.1" width="256" height="256" viewBox="0 0 256 256" xml:space="preserve">

<defs>
</defs>
<g style="stroke: none; stroke-width: 0; stroke-dasharray: none; stroke-linecap: butt; stroke-linejoin: miter; stroke-miterlimit: 10; fill: none; fill-rule: nonzero; opacity: 1;" transform="translate(1.4065934065934016 1.4065934065934016) scale(2.81 2.81)" >
	<path d="M 82.65 28.037 c -1.438 -1.625 -3.452 -2.562 -5.666 -2.638 c -1.564 -0.063 -3.139 0.328 -4.601 1.128 v -8.259 c 0 -4.035 -3.282 -7.317 -7.317 -7.317 h -2.147 c 0.353 -2.104 -0.041 -4.064 -1.245 -5.426 c -1.102 -1.243 -2.641 -1.959 -4.33 -2.017 c -1.425 -0.063 -2.833 0.362 -4.102 1.217 c -1.265 -0.849 -2.678 -1.265 -4.096 -1.217 c -1.694 0.059 -3.234 0.775 -4.334 2.018 c -1.205 1.361 -1.599 3.321 -1.245 5.425 H 8.877 c -4.035 0 -7.317 3.282 -7.317 7.317 v 47.796 c 0 4.035 3.282 7.317 7.317 7.317 h 5.537 V 89 c 0 0.389 0.225 0.741 0.577 0.906 C 15.125 89.969 15.27 90 15.413 90 c 0.23 0 0.458 -0.079 0.642 -0.233 l 19.579 -16.386 h 29.432 c 4.035 0 7.317 -3.282 7.317 -7.317 V 49.57 c 2.731 -1.529 6.819 -4.974 8.591 -7.242 C 84.867 37.348 85.571 31.337 82.65 28.037 z M 46.309 6.851 c 0.733 -0.828 1.765 -1.306 2.906 -1.345 c 0.054 -0.002 0.106 -0.003 0.159 -0.003 c 1.126 0 2.241 0.427 3.234 1.24 l 0.635 0.519 l 0.633 -0.52 c 1.043 -0.855 2.22 -1.284 3.394 -1.236 c 1.141 0.039 2.172 0.517 2.905 1.344 c 1.555 1.757 1 5.293 -1.292 8.226 c -1.115 1.428 -3.864 3.752 -5.642 4.78 c -1.776 -1.028 -4.525 -3.353 -5.641 -4.78 C 45.31 12.144 44.754 8.607 46.309 6.851 z M 65.066 71.381 H 35.272 c -0.048 0 -0.089 0.021 -0.136 0.027 c -0.069 0.01 -0.136 0.017 -0.202 0.041 c -0.068 0.025 -0.126 0.063 -0.187 0.102 c -0.038 0.024 -0.082 0.034 -0.117 0.064 L 16.413 86.859 V 72.381 c 0 -0.553 -0.448 -1 -1 -1 H 8.877 c -2.932 0 -5.317 -2.386 -5.317 -5.317 V 18.268 c 0 -2.932 2.385 -5.317 5.317 -5.317 h 35.24 c 0.434 1.14 1.068 2.281 1.908 3.357 c 1.314 1.683 4.352 4.242 6.372 5.369 l 0.847 0.472 l 0.845 -0.472 c 2.02 -1.126 5.056 -3.686 6.371 -5.369 c 0.841 -1.076 1.475 -2.217 1.909 -3.357 h 2.698 c 2.932 0 5.317 2.385 5.317 5.317 v 8.262 c -1.451 -0.792 -3.009 -1.179 -4.597 -1.131 c -2.218 0.077 -4.231 1.014 -5.671 2.639 c -2.921 3.3 -2.216 9.31 1.676 14.291 c 1.771 2.267 5.859 5.712 8.592 7.242 v 16.493 C 70.383 68.995 67.997 71.381 65.066 71.381 z M 79.398 41.096 c -1.587 2.032 -5.556 5.371 -8.013 6.741 l -0.002 0.002 l -0.004 -0.002 c -2.457 -1.371 -6.426 -4.709 -8.012 -6.741 c -3.299 -4.221 -4.036 -9.156 -1.754 -11.734 c 1.071 -1.21 2.578 -1.908 4.242 -1.965 c 0.077 -0.003 0.153 -0.004 0.23 -0.004 c 1.629 0 3.236 0.613 4.663 1.782 l 0.634 0.519 l 0.634 -0.52 c 1.5 -1.229 3.198 -1.844 4.894 -1.777 c 1.664 0.057 3.171 0.755 4.241 1.965 C 83.434 31.941 82.697 36.876 79.398 41.096 z" style="stroke: none; stroke-width: 1; stroke-dasharray: none; stroke-linecap: butt; stroke-linejoin: miter; stroke-miterlimit: 10; fill: rgb(0,0,0); fill-rule: nonzero; opacity: 1;" transform=" matrix(1 0 0 1 0 0) " stroke-linecap="round" />
	<path d="M 80.732 14.723 l -0.763 -0.426 c -1.561 -0.871 -3.91 -2.851 -4.928 -4.153 c -2.298 -2.941 -2.683 -6.525 -0.915 -8.522 c 0.882 -0.996 2.115 -1.571 3.474 -1.618 c 1.093 -0.033 2.159 0.263 3.13 0.881 c 0.975 -0.622 2.059 -0.929 3.136 -0.88 c 1.354 0.046 2.587 0.621 3.469 1.618 c 1.768 1.997 1.383 5.581 -0.915 8.522 c -1.02 1.304 -3.369 3.283 -4.929 4.153 L 80.732 14.723 z M 77.783 2.002 c -0.037 0 -0.075 0 -0.112 0.002 c -0.806 0.027 -1.531 0.363 -2.046 0.944 c -1.111 1.255 -0.684 3.819 0.993 5.965 c 0.811 1.038 2.778 2.711 4.112 3.514 c 1.335 -0.803 3.302 -2.475 4.113 -3.514 c 1.677 -2.146 2.104 -4.71 0.993 -5.965 c -0.515 -0.582 -1.24 -0.917 -2.044 -0.945 c -0.839 -0.033 -1.678 0.274 -2.427 0.888 l -0.634 0.52 l -0.635 -0.52 C 79.384 2.308 78.586 2.002 77.783 2.002 z" style="stroke: none; stroke-width: 1; stroke-dasharray: none; stroke-linecap: butt; stroke-linejoin: miter; stroke-miterlimit: 10; fill: rgb(0,0,0); fill-rule: nonzero; opacity: 1;" transform=" matrix(1 0 0 1 0 0) " stroke-linecap="round" />
	<path d="M 52.786 52.158 l -4.932 -27.136 c -0.058 -0.317 -0.265 -0.587 -0.556 -0.725 c -0.293 -0.139 -0.632 -0.126 -0.913 0.03 l -23.15 12.865 l -7.498 1.363 c -3.419 0.622 -5.769 3.676 -5.348 6.955 c 0.219 1.713 1.105 3.217 2.495 4.234 c 1.391 1.019 3.092 1.413 4.786 1.102 l 3.504 -0.637 l 1.669 9.184 c 0.252 1.386 1.028 2.59 2.186 3.392 c 0.892 0.617 1.927 0.938 2.989 0.938 c 0.316 0 0.636 -0.028 0.954 -0.087 c 2.86 -0.52 4.763 -3.269 4.244 -6.128 l -1.293 -7.117 l 19.734 2.935 c 0.05 0.007 0.099 0.011 0.147 0.011 c 0.269 0 0.528 -0.108 0.719 -0.305 C 52.745 52.801 52.844 52.476 52.786 52.158 z M 17.312 48.877 c -1.149 0.211 -2.304 -0.056 -3.248 -0.747 c -0.942 -0.69 -1.543 -1.711 -1.693 -2.875 c -0.28 -2.186 1.39 -4.309 3.722 -4.733 l 0.209 -0.038 l 1.528 8.299 L 17.312 48.877 z M 31.247 57.865 c 0.322 1.774 -0.859 3.48 -2.633 3.804 c -0.859 0.152 -1.728 -0.032 -2.447 -0.529 c -0.718 -0.497 -1.2 -1.245 -1.356 -2.104 l -1.669 -9.184 l 2.318 -0.421 l 4.373 0.65 L 31.247 57.865 z M 25.59 47.427 c -0.049 -0.007 -0.098 -0.011 -0.147 -0.011 c -0.06 0 -0.12 0.006 -0.179 0.017 L 19.8 48.425 l -1.528 -8.299 l 5.484 -0.997 c 0.108 -0.02 0.211 -0.057 0.307 -0.11 l 22.074 -12.267 l 4.433 24.389 L 25.59 47.427 z" style="stroke: none; stroke-width: 1; stroke-dasharray: none; stroke-linecap: butt; stroke-linejoin: miter; stroke-miterlimit: 10; fill: rgb(0,0,0); fill-rule: nonzero; opacity: 1;" transform=" matrix(1 0 0 1 0 0) " stroke-linecap="round" />
</g>
</svg>