<svg xmlns="http://www.w3.org/2000/svg" xmlns:xlink="http://www.w3.org/1999/xlink" version="1.1" width="256" height="256" viewBox="0 0 256 256" xml:space="preserve">

<defs>
</defs>
<g style="stroke: none; stroke-width: 0; stroke-dasharray: none; stroke-linecap: butt; stroke-linejoin: miter; stroke-miterlimit: 10; fill: none; fill-rule: nonzero; opacity: 1;" transform="translate(1.4065934065934016 1.4065934065934016) scale(2.81 2.81)" >
	<circle cx="74.296" cy="69.976" r="14.706" style="stroke: none; stroke-width: 1; stroke-dasharray: none; stroke-linecap: butt; stroke-linejoin: miter; stroke-miterlimit: 10; fill: rgb(255,226,122); fill-rule: nonzero; opacity: 1;" transform="  matrix(1 0 0 1 0 0) "/>
	<circle cx="15.706" cy="69.976" r="14.706" style="stroke: none; stroke-width: 1; stroke-dasharray: none; stroke-linecap: butt; stroke-linejoin: miter; stroke-miterlimit: 10; fill: rgb(255,226,122); fill-rule: nonzero; opacity: 1;" transform="  matrix(1 0 0 1 0 0) "/>
	<path d="M 74.294 73.072 L 74.294 73.072 c -2.124 0 -3.846 -1.722 -3.846 -3.846 v -2.262 c 0 -2.124 1.722 -3.846 3.846 -3.846 h 0 c 2.124 0 3.846 1.722 3.846 3.846 v 2.262 C 78.14 71.35 76.418 73.072 74.294 73.072 z" style="stroke: none; stroke-width: 1; stroke-dasharray: none; stroke-linecap: butt; stroke-linejoin: miter; stroke-miterlimit: 10; fill: rgb(255,200,159); fill-rule: nonzero; opacity: 1;" transform=" matrix(1 0 0 1 0 0) " stroke-linecap="round" />
	<path d="M 74.294 73.072 c -3.342 0 -6.052 2.71 -6.052 6.052 v 4.249 c 1.846 0.835 3.894 1.304 6.052 1.304 s 4.206 -0.469 6.052 -1.304 v -4.249 C 80.346 75.781 77.637 73.072 74.294 73.072 z" style="stroke: none; stroke-width: 1; stroke-dasharray: none; stroke-linecap: butt; stroke-linejoin: miter; stroke-miterlimit: 10; fill: rgb(74,128,170); fill-rule: nonzero; opacity: 1;" transform=" matrix(1 0 0 1 0 0) " stroke-linecap="round" />
	<path d="M 15.706 73.072 L 15.706 73.072 c -2.124 0 -3.846 -1.722 -3.846 -3.846 v -2.262 c 0 -2.124 1.722 -3.846 3.846 -3.846 h 0 c 2.124 0 3.846 1.722 3.846 3.846 v 2.262 C 19.552 71.35 17.83 73.072 15.706 73.072 z" style="stroke: none; stroke-width: 1; stroke-dasharray: none; stroke-linecap: butt; stroke-linejoin: miter; stroke-miterlimit: 10; fill: rgb(255,200,159); fill-rule: nonzero; opacity: 1;" transform=" matrix(1 0 0 1 0 0) " stroke-linecap="round" />
	<path d="M 15.706 73.072 c -3.342 0 -6.052 2.71 -6.052 6.052 v 4.249 c 1.846 0.835 3.894 1.304 6.052 1.304 s 4.206 -0.469 6.052 -1.304 v -4.249 C 21.758 75.781 19.048 73.072 15.706 73.072 z" style="stroke: none; stroke-width: 1; stroke-dasharray: none; stroke-linecap: butt; stroke-linejoin: miter; stroke-miterlimit: 10; fill: rgb(74,128,170); fill-rule: nonzero; opacity: 1;" transform=" matrix(1 0 0 1 0 0) " stroke-linecap="round" />
	<path d="M 60.757 24.369 l -0.001 0 c -1.144 -0.474 -1.233 -1.533 -1.233 -1.846 c 0 -0.313 0.089 -1.372 1.233 -1.846 c 0.577 -0.239 1.025 -0.688 1.264 -1.264 c 0.239 -0.576 0.239 -1.211 0 -1.788 l -1.522 -3.673 c -0.493 -1.189 -1.861 -1.757 -3.053 -1.264 c -1.145 0.475 -1.956 -0.212 -2.177 -0.433 c -0.222 -0.222 -0.907 -1.033 -0.433 -2.178 c 0.238 -0.576 0.238 -1.211 0 -1.788 c -0.239 -0.577 -0.688 -1.026 -1.264 -1.264 l -3.673 -1.522 c -1.189 -0.492 -2.558 0.075 -3.052 1.265 C 46.372 7.911 45.313 8 45 8 s -1.372 -0.089 -1.846 -1.233 c -0.238 -0.577 -0.688 -1.026 -1.264 -1.265 c -0.576 -0.239 -1.211 -0.239 -1.788 0 l -3.672 1.521 c -0.577 0.239 -1.026 0.688 -1.265 1.264 s -0.239 1.212 0 1.788 c 0.474 1.144 -0.212 1.956 -0.433 2.177 c -0.221 0.222 -1.032 0.908 -2.177 0.433 c -0.576 -0.238 -1.212 -0.238 -1.788 0 c -0.577 0.239 -1.026 0.688 -1.264 1.264 l -1.521 3.673 c -0.239 0.577 -0.239 1.212 0 1.788 c 0.239 0.577 0.688 1.026 1.264 1.264 c 1.144 0.474 1.233 1.533 1.233 1.846 c 0 0.313 -0.089 1.372 -1.234 1.846 c -1.19 0.493 -1.757 1.863 -1.264 3.052 l 1.521 3.673 c 0.239 0.577 0.688 1.025 1.264 1.264 c 0.576 0.238 1.211 0.239 1.788 0 c 1.144 -0.473 1.956 0.212 2.177 0.433 c 0.221 0.221 0.907 1.033 0.433 2.177 c -0.493 1.189 0.074 2.559 1.264 3.053 l 3.673 1.522 c 0.289 0.119 0.591 0.179 0.894 0.179 c 0.303 0 0.606 -0.06 0.894 -0.179 c 0.577 -0.239 1.026 -0.688 1.264 -1.264 c 0.474 -1.145 1.533 -1.233 1.846 -1.233 l 0 0 c 0.313 0 1.372 0.089 1.846 1.234 c 0.493 1.189 1.863 1.755 3.052 1.263 l 3.674 -1.522 c 1.189 -0.493 1.756 -1.862 1.263 -3.052 c -0.474 -1.144 0.212 -1.956 0.433 -2.177 c 0.222 -0.222 1.032 -0.908 2.178 -0.433 c 1.19 0.491 2.558 -0.075 3.052 -1.265 l 1.522 -3.673 C 62.513 26.231 61.946 24.862 60.757 24.369 z M 45 28.972 c -3.556 0 -6.45 -2.893 -6.45 -6.45 s 2.893 -6.45 6.45 -6.45 s 6.45 2.893 6.45 6.45 S 48.556 28.972 45 28.972 z" style="stroke: none; stroke-width: 1; stroke-dasharray: none; stroke-linecap: butt; stroke-linejoin: miter; stroke-miterlimit: 10; fill: rgb(255,71,85); fill-rule: nonzero; opacity: 1;" transform=" matrix(1 0 0 1 0 0) " stroke-linecap="round" />
	<path d="M 74.294 85.677 c -8.66 0 -15.705 -7.045 -15.705 -15.705 s 7.045 -15.706 15.705 -15.706 S 90 61.312 90 69.972 S 82.954 85.677 74.294 85.677 z M 74.294 56.266 c -7.557 0 -13.705 6.148 -13.705 13.706 c 0 7.557 6.148 13.705 13.705 13.705 C 81.852 83.677 88 77.528 88 69.972 C 88 62.414 81.852 56.266 74.294 56.266 z" style="stroke: none; stroke-width: 1; stroke-dasharray: none; stroke-linecap: butt; stroke-linejoin: miter; stroke-miterlimit: 10; fill: rgb(0,0,0); fill-rule: nonzero; opacity: 1;" transform=" matrix(1 0 0 1 0 0) " stroke-linecap="round" />
	<path d="M 74.294 74.072 c -2.672 0 -4.846 -2.174 -4.846 -4.847 v -2.263 c 0 -2.672 2.174 -4.846 4.846 -4.846 c 2.673 0 4.847 2.174 4.847 4.846 v 2.263 C 79.141 71.898 76.967 74.072 74.294 74.072 z M 74.294 64.117 c -1.569 0 -2.846 1.276 -2.846 2.846 v 2.263 c 0 1.569 1.276 2.847 2.846 2.847 s 2.847 -1.277 2.847 -2.847 v -2.263 C 77.141 65.394 75.863 64.117 74.294 64.117 z" style="stroke: none; stroke-width: 1; stroke-dasharray: none; stroke-linecap: butt; stroke-linejoin: miter; stroke-miterlimit: 10; fill: rgb(0,0,0); fill-rule: nonzero; opacity: 1;" transform=" matrix(1 0 0 1 0 0) " stroke-linecap="round" />
	<path d="M 74.294 85.677 c -2.245 0 -4.42 -0.469 -6.464 -1.393 c -0.357 -0.162 -0.588 -0.519 -0.588 -0.911 v -4.249 c 0 -3.889 3.163 -7.052 7.052 -7.052 s 7.053 3.163 7.053 7.052 v 4.249 c 0 0.393 -0.23 0.749 -0.588 0.911 C 78.715 85.208 76.54 85.677 74.294 85.677 z M 69.242 82.712 c 3.221 1.28 6.884 1.28 10.104 0 v -3.588 c 0 -2.785 -2.267 -5.052 -5.053 -5.052 c -2.785 0 -5.052 2.267 -5.052 5.052 V 82.712 z M 80.347 83.373 h 0.01 H 80.347 z" style="stroke: none; stroke-width: 1; stroke-dasharray: none; stroke-linecap: butt; stroke-linejoin: miter; stroke-miterlimit: 10; fill: rgb(0,0,0); fill-rule: nonzero; opacity: 1;" transform=" matrix(1 0 0 1 0 0) " stroke-linecap="round" />
	<path d="M 15.706 85.677 C 7.045 85.677 0 78.632 0 69.972 s 7.045 -15.706 15.706 -15.706 s 15.706 7.046 15.706 15.706 S 24.366 85.677 15.706 85.677 z M 15.706 56.266 C 8.148 56.266 2 62.414 2 69.972 c 0 7.557 6.148 13.705 13.706 13.705 s 13.706 -6.148 13.706 -13.705 C 29.411 62.414 23.263 56.266 15.706 56.266 z" style="stroke: none; stroke-width: 1; stroke-dasharray: none; stroke-linecap: butt; stroke-linejoin: miter; stroke-miterlimit: 10; fill: rgb(0,0,0); fill-rule: nonzero; opacity: 1;" transform=" matrix(1 0 0 1 0 0) " stroke-linecap="round" />
	<path d="M 15.706 74.072 c -2.672 0 -4.846 -2.174 -4.846 -4.847 v -2.263 c 0 -2.672 2.174 -4.846 4.846 -4.846 s 4.846 2.174 4.846 4.846 v 2.263 C 20.552 71.898 18.378 74.072 15.706 74.072 z M 15.706 64.117 c -1.569 0 -2.846 1.276 -2.846 2.846 v 2.263 c 0 1.569 1.277 2.847 2.846 2.847 s 2.846 -1.277 2.846 -2.847 v -2.263 C 18.552 65.394 17.275 64.117 15.706 64.117 z" style="stroke: none; stroke-width: 1; stroke-dasharray: none; stroke-linecap: butt; stroke-linejoin: miter; stroke-miterlimit: 10; fill: rgb(0,0,0); fill-rule: nonzero; opacity: 1;" transform=" matrix(1 0 0 1 0 0) " stroke-linecap="round" />
	<path d="M 15.706 85.677 c -2.246 0 -4.421 -0.469 -6.464 -1.393 c -0.358 -0.162 -0.588 -0.519 -0.588 -0.911 v -4.249 c 0 -3.889 3.164 -7.052 7.052 -7.052 c 3.889 0 7.052 3.163 7.052 7.052 v 4.249 c 0 0.393 -0.23 0.749 -0.588 0.911 C 20.126 85.208 17.951 85.677 15.706 85.677 z M 10.654 82.712 c 3.219 1.281 6.884 1.281 10.104 0 v -3.588 c 0 -2.785 -2.267 -5.052 -5.052 -5.052 s -5.052 2.267 -5.052 5.052 V 82.712 z M 21.758 83.373 h 0.01 H 21.758 z" style="stroke: none; stroke-width: 1; stroke-dasharray: none; stroke-linecap: butt; stroke-linejoin: miter; stroke-miterlimit: 10; fill: rgb(0,0,0); fill-rule: nonzero; opacity: 1;" transform=" matrix(1 0 0 1 0 0) " stroke-linecap="round" />
	<path d="M 40.996 40.721 c -0.438 0 -0.867 -0.085 -1.276 -0.254 l -3.674 -1.522 c -1.7 -0.706 -2.51 -2.661 -1.806 -4.359 c 0.222 -0.536 -0.04 -0.912 -0.216 -1.088 c -0.175 -0.176 -0.55 -0.439 -1.088 -0.216 c -0.823 0.339 -1.729 0.34 -2.553 0 c -0.824 -0.342 -1.465 -0.983 -1.806 -1.807 l -1.521 -3.672 c -0.704 -1.698 0.105 -3.653 1.804 -4.358 c 0.538 -0.222 0.618 -0.673 0.618 -0.922 s -0.08 -0.7 -0.616 -0.922 c -0.823 -0.341 -1.465 -0.982 -1.806 -1.806 c -0.341 -0.823 -0.341 -1.73 0 -2.553 l 1.521 -3.673 c 0.34 -0.823 0.981 -1.464 1.806 -1.805 c 0.822 -0.341 1.729 -0.341 2.553 0 c 0.539 0.225 0.912 -0.04 1.087 -0.216 c 0.177 -0.177 0.439 -0.552 0.217 -1.088 c -0.341 -0.823 -0.341 -1.73 0 -2.553 c 0.341 -0.823 0.982 -1.465 1.806 -1.806 l 3.672 -1.521 c 0.824 -0.342 1.731 -0.342 2.554 0 c 0.823 0.34 1.464 0.981 1.805 1.806 C 44.299 6.92 44.75 7 45 7 c 0.249 0 0.7 -0.08 0.922 -0.616 c 0.705 -1.698 2.661 -2.509 4.358 -1.805 l 3.674 1.521 c 0.824 0.341 1.465 0.983 1.806 1.807 c 0.34 0.821 0.341 1.728 0 2.551 c -0.223 0.537 0.04 0.913 0.216 1.089 c 0.176 0.177 0.549 0.439 1.087 0.216 c 1.697 -0.705 3.654 0.105 4.359 1.804 l 1.521 3.674 c 0.342 0.824 0.342 1.731 0 2.554 c -0.34 0.822 -0.981 1.463 -1.805 1.805 c -0.536 0.222 -0.616 0.673 -0.616 0.922 s 0.08 0.7 0.616 0.922 l 0.001 0 c 1.698 0.705 2.508 2.659 1.805 4.357 l -1.521 3.673 c -0.704 1.698 -2.663 2.506 -4.357 1.807 c -0.538 -0.223 -0.914 0.039 -1.09 0.215 s -0.438 0.552 -0.217 1.088 c 0.704 1.697 -0.104 3.653 -1.803 4.358 l -3.676 1.522 c -1.703 0.705 -3.654 -0.107 -4.358 -1.804 c -0.223 -0.538 -0.673 -0.618 -0.922 -0.618 s -0.7 0.08 -0.922 0.616 c -0.341 0.824 -0.983 1.465 -1.806 1.805 C 41.864 40.635 41.435 40.721 40.996 40.721 z M 33.332 31.195 c 0.877 0 1.624 0.406 2.106 0.888 c 0.685 0.685 1.215 1.903 0.65 3.268 c -0.282 0.68 0.043 1.463 0.724 1.746 l 3.672 1.521 c 0.329 0.136 0.692 0.136 1.022 0 c 0.331 -0.137 0.587 -0.394 0.724 -0.724 c 0.565 -1.364 1.801 -1.851 2.77 -1.851 c 0.968 0 2.204 0.486 2.77 1.852 c 0.281 0.679 1.063 1.002 1.746 0.722 l 3.674 -1.521 c 0.68 -0.282 1.004 -1.065 0.722 -1.746 c -0.564 -1.365 -0.034 -2.583 0.65 -3.268 c 0.685 -0.686 1.904 -1.215 3.268 -0.649 c 0.683 0.282 1.465 -0.045 1.746 -0.725 l 1.521 -3.672 c 0.281 -0.68 -0.043 -1.462 -0.723 -1.745 l 0 0 c -1.365 -0.565 -1.852 -1.802 -1.852 -2.77 c 0 -0.969 0.486 -2.205 1.851 -2.77 c 0.33 -0.137 0.586 -0.393 0.723 -0.723 c 0.137 -0.33 0.137 -0.693 0 -1.023 l -1.521 -3.673 c -0.282 -0.68 -1.065 -1.006 -1.746 -0.722 c -1.364 0.566 -2.583 0.035 -3.268 -0.65 c -0.684 -0.685 -1.214 -1.902 -0.648 -3.267 c 0.136 -0.329 0.136 -0.692 -0.001 -1.021 c -0.137 -0.331 -0.393 -0.587 -0.723 -0.724 l -3.674 -1.521 c -0.677 -0.28 -1.463 0.043 -1.745 0.724 C 47.203 8.514 45.968 9 45 9 c -0.969 0 -2.205 -0.486 -2.77 -1.851 c -0.137 -0.33 -0.394 -0.586 -0.723 -0.723 c -0.33 -0.137 -0.693 -0.137 -1.023 0 l -3.672 1.521 c -0.33 0.137 -0.587 0.394 -0.724 0.723 c -0.137 0.33 -0.137 0.693 0 1.023 c 0.565 1.365 0.035 2.583 -0.65 3.267 c -0.683 0.686 -1.902 1.216 -3.267 0.65 c -0.329 -0.136 -0.693 -0.136 -1.024 0 c -0.329 0.136 -0.586 0.393 -0.722 0.722 l -1.522 3.673 c -0.136 0.33 -0.136 0.693 0 1.023 c 0.137 0.33 0.394 0.586 0.723 0.723 c 1.365 0.565 1.851 1.801 1.851 2.77 s -0.486 2.205 -1.852 2.77 c -0.68 0.282 -1.004 1.065 -0.723 1.745 l 1.521 3.673 c 0.137 0.33 0.394 0.587 0.723 0.724 c 0.329 0.136 0.693 0.136 1.023 0 C 32.574 31.267 32.964 31.195 33.332 31.195 z M 45 29.972 c -4.108 0 -7.45 -3.342 -7.45 -7.45 c 0 -4.107 3.342 -7.449 7.45 -7.449 c 4.107 0 7.449 3.342 7.449 7.449 C 52.449 26.63 49.107 29.972 45 29.972 z M 45 17.073 c -3.005 0 -5.45 2.444 -5.45 5.449 s 2.445 5.45 5.45 5.45 s 5.449 -2.445 5.449 -5.45 S 48.005 17.073 45 17.073 z" style="stroke: none; stroke-width: 1; stroke-dasharray: none; stroke-linecap: butt; stroke-linejoin: miter; stroke-miterlimit: 10; fill: rgb(0,0,0); fill-rule: nonzero; opacity: 1;" transform=" matrix(1 0 0 1 0 0) " stroke-linecap="round" />
	<path d="M 15.706 50.266 c -0.552 0 -1 -0.447 -1 -1 V 27.191 c 0 -3.126 2.543 -5.669 5.668 -5.669 h 2.104 c 0.552 0 1 0.448 1 1 s -0.448 1 -1 1 h -2.104 c -2.023 0 -3.668 1.646 -3.668 3.669 v 22.075 C 16.706 49.818 16.258 50.266 15.706 50.266 z" style="stroke: none; stroke-width: 1; stroke-dasharray: none; stroke-linecap: butt; stroke-linejoin: miter; stroke-miterlimit: 10; fill: rgb(0,0,0); fill-rule: nonzero; opacity: 1;" transform=" matrix(1 0 0 1 0 0) " stroke-linecap="round" />
	<path d="M 74.294 50.266 c -0.553 0 -1 -0.447 -1 -1 V 27.191 c 0 -2.023 -1.646 -3.669 -3.668 -3.669 h -2.104 c -0.553 0 -1 -0.448 -1 -1 s 0.447 -1 1 -1 h 2.104 c 3.125 0 5.668 2.543 5.668 5.669 v 22.075 C 75.294 49.818 74.847 50.266 74.294 50.266 z" style="stroke: none; stroke-width: 1; stroke-dasharray: none; stroke-linecap: butt; stroke-linejoin: miter; stroke-miterlimit: 10; fill: rgb(0,0,0); fill-rule: nonzero; opacity: 1;" transform=" matrix(1 0 0 1 0 0) " stroke-linecap="round" />
</g>
</svg>