<svg xmlns="http://www.w3.org/2000/svg" xmlns:xlink="http://www.w3.org/1999/xlink" version="1.1" width="256" height="256" viewBox="0 0 256 256" xml:space="preserve">

<defs>
</defs>
<g style="stroke: none; stroke-width: 0; stroke-dasharray: none; stroke-linecap: butt; stroke-linejoin: miter; stroke-miterlimit: 10; fill: none; fill-rule: nonzero; opacity: 1;" transform="translate(1.4065934065934016 1.4065934065934016) scale(2.81 2.81)" >
	<path d="M 61.249 49.905 c 0.247 0.067 0.503 0.109 0.764 0.109 c 0.32 0 0.645 -0.053 0.964 -0.164 c 14.436 -5.022 24.518 -22.287 24.518 -41.986 c 0 -1.621 -1.314 -2.935 -2.935 -2.935 H 73.496 c 0.041 -1.307 0.07 -2.622 0.07 -3.95 c 0 -0.54 -0.438 -0.978 -0.978 -0.978 H 17.414 c -0.54 0 -0.978 0.438 -0.978 0.978 c 0 1.329 0.029 2.643 0.07 3.95 H 5.44 c -1.621 0 -2.935 1.314 -2.935 2.935 c 0 19.7 10.083 36.966 24.52 41.987 c 0.319 0.112 0.644 0.164 0.964 0.164 c 0.261 0 0.516 -0.042 0.763 -0.109 c 2.756 3.988 5.86 6.998 9.2 8.771 v 15.639 h -2.933 c -3.968 0 -7.197 3.228 -7.197 7.197 v 2.618 h -3.245 c -1.621 0 -2.935 1.314 -2.935 2.935 c 0 1.621 1.314 2.935 2.935 2.935 h 40.846 c 1.621 0 2.935 -1.314 2.935 -2.935 c 0 -1.621 -1.314 -2.935 -2.935 -2.935 h -3.245 v -2.618 c 0 -3.968 -3.228 -7.197 -7.197 -7.197 h -2.934 V 58.677 C 55.388 56.903 58.493 53.893 61.249 49.905 z M 81.543 10.798 C 80.771 24.544 74.61 36.469 65.64 42.073 c 3.874 -8.448 6.569 -19.254 7.53 -31.275 H 81.543 z M 8.457 10.798 h 8.373 c 0.962 12.021 3.657 22.828 7.531 31.276 C 15.39 36.47 9.229 24.545 8.457 10.798 z" style="stroke: none; stroke-width: 1; stroke-dasharray: none; stroke-linecap: butt; stroke-linejoin: miter; stroke-miterlimit: 10; fill: rgb(0,0,0); fill-rule: nonzero; opacity: 1;" transform=" matrix(1 0 0 1 0 0) " stroke-linecap="round" />
</g>
</svg>